<svg id="Layer_1" enable-background="new 0 0 511.98 511.98" height="512" viewBox="0 0 511.98 511.98" width="512" xmlns="http://www.w3.org/2000/svg"><g><path d="m255.99 439.33c-12.129 0-21.996 9.867-21.996 21.996v50.655h43.993v-50.655c0-12.129-9.867-21.996-21.997-21.996z"/><path d="m.032 297.996v213.984h133.958v-213.984zm83.978 136.969h-30v-35.982h30zm0-65.984h-30v-35.982h30z"/><path d="m133.99 193.652h-70.829l-63.129 63.129v11.215h133.958z"/><path d="m377.991 511.98h133.958v-213.984h-133.958zm49.979-178.981h30v35.982h-30zm30 65.984v35.982h-30v-35.982z"/><circle cx="255.99" cy="203.696" r="10.332"/><path d="m511.949 267.996v-11.215l-63.13-63.129h-70.828v74.344z"/><path d="m270.991 108.361v-29.181h62.333v-79.18h-92.334v108.361h-77v403.62h40.004v-50.655c0-28.671 23.325-51.996 51.996-51.996s51.997 23.325 51.997 51.996v50.655h40.004v-403.62zm-50.004 268.278h-30v-35.982h30zm0-65.985h-30v-35.982h30zm50.003 65.985h-30v-35.982h30zm0-65.985h-30v-35.982h30zm-15-66.627c-22.239 0-40.332-18.093-40.332-40.332s18.093-40.332 40.332-40.332 40.332 18.093 40.332 40.332-18.093 40.332-40.332 40.332zm65.004 132.612h-30v-35.982h30zm-30-65.985v-35.982h30v35.982z"/></g></svg>